<svg width="2890" height="1200" viewBox="0 0 2890 1200" fill="none" xmlns="http://www.w3.org/2000/svg">
<path d="M400.481 289.2V779.6H645.281V874H298.081V289.2H400.481Z" fill="#27548A"/>
<path d="M714.15 874V478.8H811.75V874H714.15Z" fill="#27548A"/>
<path d="M1010.19 874H912.588V478.8H1002.99L1010.99 530C1035.79 490 1083.79 466.8 1137.39 466.8C1236.59 466.8 1287.79 528.4 1287.79 630.8V874H1190.19V654C1190.19 587.6 1157.39 555.6 1106.99 555.6C1046.99 555.6 1010.19 597.2 1010.19 661.2V874Z" fill="#27548A"/>
<path d="M1482.08 874H1385.28V278.8H1482.08V644.4L1635.68 478.8H1758.08L1607.68 635.6L1754.88 874H1642.88L1539.68 707.6L1482.08 767.6V874Z" fill="#27548A"/>
<path d="M1814.15 874V478.8H1911.75V874H1814.15Z" fill="#27548A"/>
<path d="M1973.39 478.8H2030.19V430.8C2030.19 323.6 2086.99 278.8 2172.59 278.8C2187.79 278.8 2206.19 279.6 2222.99 282.8V366H2188.59C2138.99 366 2126.99 391.6 2126.99 430.8V478.8H2221.39V560.4H2126.99V874H2030.19V560.4H1973.39V478.8Z" fill="#27548A"/>
<path d="M2249.28 1057.2V975.6H2307.68C2346.08 975.6 2370.08 966.8 2386.88 920.4L2398.08 890.8L2238.88 478.8H2342.08L2443.68 766.8L2550.88 478.8H2651.68L2458.08 962C2428.48 1035.6 2386.88 1066 2322.08 1066C2294.88 1066 2270.88 1062.8 2249.28 1057.2Z" fill="#27548A"/>
<path d="M760.5 164C787.307 238.83 811.754 269.376 876 299C811.093 330.316 785.814 359.847 760.5 434C734.422 358.543 709.477 328.476 645 299C709.162 269.283 734.64 241.198 760.5 164Z" fill="#27548A"/>
</svg>
